HIERARCHY
ROOT Hips
{
	OFFSET -0.179506 -22.333345 2.821913
	CHANNELS 6 Xposition Yposition Zposition Zrotation Yrotation Xrotation 
	JOINT LeftUpLeg
	{
		OFFSET 6.951974 -9.140623 -0.681533
		CHANNELS 3 Zrotation Yrotation Xrotation
		JOINT LeftLeg
		{
			OFFSET 3.427654 -37.519855 -0.449580
			CHANNELS 3 Zrotation Yrotation Xrotation
			JOINT LeftFoot
			{
				OFFSET -1.359570 -39.796059 -4.369333
				CHANNELS 3 Zrotation Yrotation Xrotation
				JOINT LeftToe
				{
					OFFSET 2.635814 -5.579078 11.928840
					CHANNELS 3 Zrotation Yrotation Xrotation
					End Site
					{
						OFFSET 0.000000 0.000000 0.000000
					}
				}
			}
		}
	}
	JOINT RightUpLeg
	{
		OFFSET -6.767048 -9.052170 -0.431982
		CHANNELS 3 Zrotation Yrotation Xrotation
		JOINT RightLeg
		{
			OFFSET -3.829005 -38.256897 -0.885003
			CHANNELS 3 Zrotation Yrotation Xrotation
			JOINT RightFoot
			{
				OFFSET 1.577377 -39.841461 -4.231180
				CHANNELS 3 Zrotation Yrotation Xrotation
				JOINT RightToe
				{
					OFFSET -2.537174 -4.814398 12.334795
					CHANNELS 3 Zrotation Yrotation Xrotation
					End Site
					{
						OFFSET 0.000000 0.000000 0.000000
					}
				}
			}
		}
	}
	JOINT Spine
	{
		OFFSET -0.253288 10.896323 -2.669631
		CHANNELS 3 Zrotation Yrotation Xrotation
		JOINT Spine1
		{
			OFFSET 0.548704 13.518043 0.109247
			CHANNELS 3 Zrotation Yrotation Xrotation
			JOINT Spine2
			{
				OFFSET 0.145701 5.292222 2.542457
				CHANNELS 3 Zrotation Yrotation Xrotation
				JOINT Neck
				{
					OFFSET -0.277840 21.387037 -4.285703
					CHANNELS 3 Zrotation Yrotation Xrotation
					JOINT Head
					{
						OFFSET 0.515184 6.496960 5.134897
						CHANNELS 3 Zrotation Yrotation Xrotation
						End Site
						{
							OFFSET 0.000000 0.000000 0.000000
						}
					}
				}
				JOINT LeftShoulder
				{
					OFFSET 7.884473 12.174932 -3.408961
					CHANNELS 3 Zrotation Yrotation Xrotation
					JOINT LeftArm
					{
						OFFSET 9.097692 3.046888 -0.886815
						CHANNELS 3 Zrotation Yrotation Xrotation
						JOINT LeftForeArm
						{
							OFFSET 25.961220 -1.277207 -2.745643
							CHANNELS 3 Zrotation Yrotation Xrotation
							JOINT LeftHand
							{
								OFFSET 24.923361 0.898606 -0.117091
								CHANNELS 3 Zrotation Yrotation Xrotation
								End Site
								{
									OFFSET 0.000000 0.000000 0.000000
								}
							}
						}
					}
				}
				JOINT RightShoulder
				{
					OFFSET -8.175920 11.883285 -3.861528
					CHANNELS 3 Zrotation Yrotation Xrotation
					JOINT RightArm
					{
						OFFSET -9.601238 3.255117 -0.914307
						CHANNELS 3 Zrotation Yrotation Xrotation
						JOINT RightForeArm
						{
							OFFSET -25.374195 -1.332924 -2.140099
							CHANNELS 3 Zrotation Yrotation Xrotation
							JOINT RightHand
							{
								OFFSET -25.529810 0.777228 -0.555919
								CHANNELS 3 Zrotation Yrotation Xrotation
								End Site
								{
									OFFSET 0.000000 0.000000 0.000000
								}
							}
						}
					}
				}
			}
		}
	}
}
MOTION
Frames: 15
Frame Time: 0.033333
3.358018 8.643445 87.315681 -105.968655 -1.915752 72.473656 19.715837 4.657515 9.355253 -7.634284 -2.013342 26.283149 0.362463 5.172589 -27.439779 nan nan nan -19.267836 -5.766086 -0.181923 2.601343 -3.318252 36.215550 5.212555 -0.588548 -28.222757 nan nan nan -0.600553 -3.470058 1.986654 8.743232 -7.481474 4.160082 1.110905 -3.082491 -5.260595 8.237999 -13.845242 1.663058 -7.943039 -20.320296 31.184295 -22.204477 -12.546431 4.266956 -55.552838 -36.038465 21.646627 -176.914693 -61.716380 -142.364716 -6.105009 -21.894630 -15.055322 21.892857 8.653473 -1.941821 26.120578 16.993281 -5.449528 -90.096864 52.366296 -55.641604 8.872717 6.964501 16.494285 
3.496866 8.575541 87.496223 -105.903739 -1.785108 72.910710 19.718449 4.773890 9.062722 -7.526039 -2.022708 25.692121 0.323515 5.074986 -26.973523 nan nan nan -19.017231 -5.890202 -0.453899 2.593197 -3.344172 35.636628 5.258697 -0.586499 -27.780565 nan nan nan -0.627456 -3.399682 2.018276 8.724295 -7.516079 4.125194 1.162149 -3.247568 -5.225464 7.991275 -12.921678 1.917928 -7.826389 -19.512222 31.376418 -22.000920 -13.101175 4.123334 -55.385678 -36.583011 21.770786 -175.942345 -61.684850 -142.862974 -6.534083 -21.243256 -13.374991 21.820246 8.453151 -2.013674 25.610724 16.863757 -5.950134 -90.721292 52.210007 -55.784510 8.864530 6.649957 17.522063 
3.640082 8.507126 87.674164 -105.866923 -1.636606 73.353180 19.754316 4.871906 8.769587 -7.486915 -2.057931 25.061704 0.306992 5.058817 -26.497518 nan nan nan -18.702432 -5.958869 -0.723592 2.568369 -3.339729 35.013773 5.220487 -0.740435 -27.329231 nan nan nan -0.633929 -3.300811 1.974303 8.684572 -7.560731 4.296730 1.265080 -3.431351 -5.266786 7.824167 -12.180316 2.335920 -7.743329 -18.626622 31.025749 -21.941128 -13.768890 4.056547 -55.063946 -37.103631 21.805655 -174.890641 -61.594905 -143.373279 -6.867671 -20.298203 -11.861393 21.495015 8.304194 -2.145095 25.211841 16.617623 -6.329223 -91.219281 51.971707 -55.824666 7.984900 6.411624 18.552663 
3.786443 8.434875 87.841881 -105.822089 -1.452256 73.727521 19.817224 4.926929 8.569977 -7.411306 -2.087288 24.392013 0.270369 5.065006 -26.069392 nan nan nan -18.375147 -6.010253 -0.903090 2.574592 -3.380625 34.378731 5.160654 -0.914111 -26.868712 nan nan nan -0.634266 -3.226306 1.884546 8.662313 -7.751742 4.648950 1.308945 -3.529481 -5.264466 7.697240 -11.391409 2.774968 -7.542102 -17.821879 30.511770 -21.768276 -14.433097 4.023962 -54.641015 -37.691150 21.745849 -174.100988 -61.618715 -143.496853 -7.034236 -19.834186 -10.839590 20.952889 8.171022 -2.310345 24.948489 16.302466 -6.586457 -91.442994 51.707565 -55.431379 6.896028 6.552941 18.912414 
3.939636 8.367046 87.998734 -105.806871 -1.280667 74.087625 19.857903 4.989559 8.392236 -7.275574 -2.071259 23.758514 0.191227 4.995604 -25.648304 nan nan nan -18.067781 -6.037006 -1.093812 2.552033 -3.475189 33.794947 5.214889 -0.984992 -26.382115 nan nan nan -0.670386 -3.230635 1.970575 8.653789 -7.911174 4.748333 1.300578 -3.465205 -5.065713 7.599733 -10.624753 2.879563 -7.300758 -17.110235 30.303698 -21.317677 -14.984217 3.873608 -54.424136 -38.305950 21.851784 -173.138532 -61.735980 -143.748579 -6.845616 -19.579516 -9.635321 20.519760 7.867361 -2.705550 24.606561 16.159803 -6.886635 -91.564997 51.620780 -54.993228 6.327639 6.854151 19.397511 
4.092047 8.310503 88.179291 -105.781051 -1.115631 74.333578 19.878771 4.990918 8.344305 -7.129971 -2.048521 23.114062 -0.000016 4.893690 -25.186345 nan nan nan -17.739983 -5.946620 -1.082362 2.521646 -3.561920 33.027717 5.364764 -1.210995 -25.941013 nan nan nan -0.644106 -3.312718 2.374954 8.593025 -7.968060 4.582736 1.263152 -3.389459 -4.855623 7.545026 -9.909821 2.820689 -7.235498 -16.359501 30.522685 -20.853942 -15.394933 3.750303 -54.181120 -38.777565 21.990751 -172.412371 -62.073904 -143.740464 -5.923193 -20.450959 -8.689964 20.167277 7.501565 -3.215617 24.266202 16.123458 -7.080866 -91.542467 51.514437 -54.409784 5.317968 7.611551 20.140990 
4.240494 8.265921 88.384834 -105.643713 -0.949921 74.537349 19.872191 4.934435 8.291616 -7.013931 -2.074058 22.508099 -0.157341 4.855643 -24.742970 nan nan nan -17.482357 -5.936381 -0.956394 2.561179 -3.676814 32.181661 5.484789 -1.461654 -25.452753 nan nan nan -0.482927 -3.450532 2.753817 8.426436 -8.090559 4.408842 1.178002 -3.528014 -4.830928 7.324186 -9.177526 3.289039 -7.104857 -15.526162 30.792843 -20.648557 -15.723284 3.655344 -53.595397 -38.832000 21.944179 -171.978374 -62.478720 -143.564115 -4.506016 -21.725579 -7.887905 19.867416 7.518356 -3.286313 23.902118 16.006545 -7.309001 -91.544039 51.123735 -54.080397 3.781575 8.420159 20.602277 
4.395123 8.207403 88.560593 -105.496701 -0.793633 74.896948 19.859962 5.036467 8.018808 -6.928207 -2.216030 21.981021 -0.030528 4.926411 -24.265016 nan nan nan -17.269466 -6.115876 -1.113934 2.619205 -3.683412 31.564777 5.507861 -1.654477 -24.953239 nan nan nan -0.393960 -3.560021 2.819577 8.299677 -8.286631 4.469803 1.195381 -3.670776 -4.846002 6.949579 -8.590761 4.082896 -6.694988 -14.657022 30.480644 -20.433712 -16.170267 3.369689 -53.338310 -38.877479 22.075331 -170.860087 -62.500708 -144.388011 -3.628693 -20.329530 -6.652734 19.485913 7.708760 -3.187903 23.392440 15.780970 -7.735591 -91.730160 50.797262 -54.356822 2.580356 8.207178 20.950277 
4.538231 8.143901 88.730614 -105.416791 -0.679213 75.284978 19.788570 5.305580 7.748969 -6.801668 -2.555512 21.457106 0.312281 5.121640 -23.780093 nan nan nan -17.020084 -6.394277 -1.357110 2.602468 -3.459767 30.987585 5.566392 -1.912792 -24.537359 nan nan nan -0.370976 -3.605545 2.824482 8.203204 -8.423649 4.643575 1.352859 -3.945781 -4.866220 6.316016 -8.121681 4.970247 -6.213727 -13.646388 29.796549 -20.302757 -16.588625 2.827904 -53.377503 -38.927731 22.392302 -168.614852 -62.080828 -146.662875 -2.881359 -16.231447 -4.274116 18.955070 8.018715 -3.105777 22.858408 15.488769 -8.221347 -91.987818 50.640925 -55.058584 1.627808 7.312574 21.809479 
4.683455 8.092931 88.940430 -105.438228 -0.566538 75.733894 19.719164 5.612861 7.505518 -6.892958 -3.284787 20.852687 1.400273 5.897907 -23.126779 nan nan nan -16.677521 -6.979697 -1.769194 2.594220 -2.727248 30.524449 5.257143 -2.372768 -24.239020 nan nan nan -0.094261 -3.624111 2.607131 7.941209 -8.472166 5.116465 1.770768 -4.678590 -5.283471 4.570507 -7.905937 7.149409 -5.253240 -12.002318 27.731610 -20.357850 -16.739635 1.568155 -55.294905 -38.773351 23.808296 -165.107664 -58.704204 -152.628226 -5.494278 -2.371469 -4.068692 18.033749 8.807977 -2.506085 22.639046 15.048211 -8.461867 -93.279965 50.285529 -57.707403 1.270718 2.903281 24.358154 
4.784650 8.029906 89.079498 -105.474154 -0.438722 75.717764 19.748884 5.365736 7.884209 -6.646538 -2.772239 19.989900 0.562755 5.359407 -22.859874 nan nan nan -16.484615 -6.593588 -1.390056 2.585743 -3.060431 29.653422 5.419780 -2.311274 -23.755711 nan nan nan -0.486293 -3.454433 2.962030 8.038344 -8.633121 5.209239 1.709687 -4.251894 -4.924472 5.401755 -7.288957 6.664082 -5.522941 -12.110585 28.880942 -20.226805 -17.416659 2.491064 -54.251139 -39.235447 23.022955 -168.502965 -61.699604 -149.285672 -4.808702 -12.072608 -7.120115 18.073041 8.239293 -3.070386 21.691264 15.064205 -8.863603 -92.597482 49.772746 -56.536922 1.266573 6.451555 23.199728 
4.882888 7.957243 89.198563 -105.515587 -0.432283 75.935258 19.598101 5.454705 7.989521 -6.403251 -2.628112 19.212341 0.138052 5.157770 -22.453980 nan nan nan -16.420746 -6.503950 -1.420464 2.548892 -3.180069 28.996115 5.727804 -2.190375 -23.250671 nan nan nan -0.399396 -3.612697 3.435505 7.899570 -8.705890 4.655857 1.427230 -4.202338 -4.577586 5.591635 -6.563840 6.570134 -5.754379 -11.581672 29.838256 -19.932438 -17.331342 2.397890 -53.589224 -39.208643 22.713672 -167.906512 -63.106368 -148.176823 -1.860041 -16.781497 -6.308791 17.753382 7.978371 -3.385140 21.430736 15.374540 -9.134797 -92.165728 49.614135 -55.410249 0.258538 8.377898 22.977338 
4.999275 7.876002 89.291626 -105.513116 -0.396040 76.232312 19.477004 5.565288 7.915756 -6.246426 -2.572086 18.553349 -0.027122 5.128826 -22.015961 nan nan nan -16.306203 -6.526201 -1.608073 2.532482 -3.146591 28.470896 5.893900 -2.246640 -22.788322 nan nan nan -0.329320 -3.768507 3.586252 7.729114 -8.913357 4.469366 1.196368 -4.072958 -4.333020 5.621325 -5.898317 6.904472 -5.689478 -10.935589 30.220230 -19.727939 -17.550887 2.335715 -52.844902 -39.209844 22.454194 -167.527595 -63.662276 -147.516546 0.230589 -18.596585 -5.611441 17.483910 7.985245 -3.496609 20.952397 15.424233 -9.446002 -91.888943 49.342691 -54.764855 -0.618237 9.285181 23.052054 
5.115403 7.808153 89.395378 -105.518169 -0.367067 76.454402 19.371518 5.724428 7.944032 -6.121601 -2.732822 17.856538 0.015408 5.232825 -21.564990 nan nan nan -16.144854 -6.633226 -1.711774 2.492405 -2.895998 27.930032 5.960924 -2.397998 -22.358521 nan nan nan -0.334316 -3.880253 3.700873 7.536579 -9.106273 4.530779 1.074765 -3.938732 -4.162516 5.536282 -5.311681 7.484396 -5.459397 -10.194700 30.131715 -19.585131 -17.938308 2.188248 -52.156745 -39.172891 22.319850 -166.577828 -63.531137 -147.778717 1.889046 -17.942159 -4.253119 17.198782 8.102682 -3.525430 20.387877 15.212505 -9.771228 -91.778661 49.124254 -54.743771 -1.885709 9.366817 23.082749 
5.229231 7.750293 89.497002 -105.561062 -0.345892 76.632148 19.306812 5.811967 8.051644 -6.036579 -2.718563 17.130296 -0.075649 5.233299 -21.193120 nan nan nan -16.001141 -6.672418 -1.772698 2.459276 -2.737929 27.387180 6.069709 -2.544230 -21.947061 nan nan nan -0.387952 -3.911349 4.003575 7.380685 -9.090458 4.404452 1.030968 -3.970031 -3.988041 5.483273 -4.820327 7.788254 -5.350172 -9.532976 30.458262 -19.430490 -18.068089 2.125318 -52.052802 -39.385828 22.162675 -166.480013 -64.077626 -147.659039 2.873359 -19.015926 -4.938484 16.769565 7.929121 -3.699851 20.034833 15.222720 -9.978400 -91.513247 48.961010 -54.477098 -2.742207 9.865809 22.930804 
